<?xml version="1.0" encoding="utf-8"?>
<!-- Generator: Adobe Illustrator 22.1.0, SVG Export Plug-In . SVG Version: 6.00 Build 0)  -->
<svg version="1.1" id="_x37_8bf026f-5d34-4e97-88cf-29aa2cfb8006"
	 xmlns="http://www.w3.org/2000/svg" xmlns:xlink="http://www.w3.org/1999/xlink" x="0px" y="0px" viewBox="0 0 1084.2 758.6"
	 style="enable-background:new 0 0 1084.2 758.6;" xml:space="preserve">
<style type="text/css">
	.st0{opacity:0.1;fill:#1C2331;enable-background:new    ;}
	.st1{fill:#AAABB0;}
	.st2{fill:#33323D;}
	.st3{fill:#444053;}
	.st4{fill:#4C4981;}
	.st5{fill:#FFB9B9;}
	.st6{fill:#504F60;}
	.st7{opacity:0.1;enable-background:new    ;}
	.st8{fill:#AE6E79;}
	.st9{fill:#767D9F;}
	.st10{fill:#FFFFFF;}
	.st11{fill:#1C2331;}
	.st12{fill:#B96B6B;}
	.st13{opacity:0.1;}
	.st14{fill:#464A5F;}
	.st15{fill:#9C9CA1;}
	.st16{fill:#939498;}
</style>
<title>interview</title>
<path class="st0" d="M484.5,130c-31.4-11.9-64.5-21.9-98.4-20.6c-49.8,1.8-97.5,29.8-120.9,70.9c-19.8,34.8-22.3,75.7-30.8,114.3
	c-10.5,47.6-30.7,92.9-52.3,137.1c-11.6,23.8-23.8,48.1-25.7,74.1c-2.6,36.2,15.9,72.2,44.8,96.3c29,24.1,67.5,36.8,106.1,39.5
	c20.6,1.5,42.1,0.1,60.3-8.8c19.3-9.5,33.4-26.6,52.8-35.9c18-8.7,39-9.9,59.2-8.7c26.4,1.5,52.4,6.6,77.3,15.4
	c28.2,9.9,54.5,24.3,82.6,34.3c28.1,10.1,59.6,15.7,88.4,7.3c27.1-7.9,48.4-27,67.7-46.4c31.5-31.6,60.3-65.8,86.3-102.1
	c17.4-24.4,33.6-50,41.2-78.4c14.7-54.3-5.5-115.5-50.4-152.5c-37.2-30.7-87-44-135.8-52.1c-44.5-7.4-96-7.8-136.9-27.1
	C561,168.3,525.5,145.6,484.5,130z"/>
<polygon class="st1" points="606.5,549.9 606.5,575.8 613.9,575.8 612.4,548 "/>
<polygon class="st1" points="496,544.7 496,570.6 503.4,570.6 502,542.8 "/>
<path class="st1" d="M619.8,502L619.8,502c2.6,0,4.7,2.1,4.7,4.7v36.5c0,2.6-2.1,4.7-4.7,4.7h0c-2.6,0-4.7-2.1-4.7-4.7v-36.5
	C615,504.1,617.2,502,619.8,502z"/>
<path class="st1" d="M498.1,491.8L498.1,491.8c2.6,0,4.7,2.1,4.7,4.7v46.7c0,2.6-2.1,4.7-4.7,4.7h0c-2.6,0-4.7-2.1-4.7-4.7v-46.7
	C493.3,493.9,495.4,491.8,498.1,491.8z"/>
<path class="st1" d="M636.6,226.5c0,0,9.5-4,10.9,0c1.4,4,2.1,38.9,2.1,38.9h-9L636.6,226.5z"/>
<path class="st1" d="M532.7,226.5c0,0-9.5-4-10.9,0c-1.4,4-2.1,38.9-2.1,38.9h9L532.7,226.5z"/>
<polygon class="st1" points="534.1,191.9 532.7,220.8 539.1,220.8 539.1,191.2 "/>
<path class="st2" d="M528.7,265.4l1.9-41.8c0,0-0.7-9.3,21.8-6.4c22.5,2.8,88.5,8.5,88.5,8.5v39.6H528.7z"/>
<path class="st2" d="M618.8,485.4l-3.6,63.8c0,0-52.2,29-115.6,1.4l5.7-67.2L618.8,485.4z"/>
<polygon class="st3" points="569.3,234.1 570.4,275.4 644,275.4 639.7,220.8 "/>
<rect x="507.4" y="458.1" class="st4" width="69.3" height="87.8"/>
<path class="st5" d="M551.2,493.9c0,0,10-7.8,11.6-5.5s-5.9,12.6-9,11.4S551.2,493.9,551.2,493.9z"/>
<rect x="373" y="263" class="st6" width="454.9" height="227.8"/>
<path class="st2" d="M528.9,190.2c0,0-3.6-33.2,0-37.3c3.6-4,63.4-42.2,118.6,2.6c0,0,5.2,0.2,4.3,12.1c-0.6,7.5-0.5,15,0.1,22.5
	C651.9,190.2,532.9,198.7,528.9,190.2z"/>
<path class="st7" d="M528.9,190.2c0,0-3.6-33.2,0-37.3c3.6-4,63.4-42.2,118.6,2.6c0,0,5.2,0.2,4.3,12.1c-0.6,7.5-0.5,15,0.1,22.5
	C651.9,190.2,532.9,198.7,528.9,190.2z"/>
<path class="st2" d="M528.9,194.5c0,0-3.6-33.2,0-37.3c3.6-4,63.4-42.2,118.6,2.6c0,0,5.2,0.2,4.3,12.1c-0.6,7.5-0.5,15,0.1,22.5
	C651.9,194.5,532.9,203,528.9,194.5z"/>
<path class="st4" d="M654,179.3c0,0,3.8,14.2,2.6,16.6c-1.2,2.4-1,9-1,9s0.3,4.3-1.6,4.7c-1.9,0.5-3.6,0.7-2,2.1
	c1.5,1.4,0,3.6,0,3.6s-0.8,3.3,0,5.5c0.8,2.1-4.9,3-4.4,5.7c0.5,2.7,2.1,10.2,0,10.4c-2.1,0.2,0.7,9.5-1.2,9.5
	c-1.9,0-3.2,16.6-3.2,16.6s-13.2-11.1-21.9-8.1c0,0,0.7-9.3,3.6-12.6s2-11.9,2-11.9l14.1-42.5L654,179.3z"/>
<path class="st8" d="M583.5,375.6c-3.1,3.4-6.4-14.8-6.4-14.8s-8.8,12.1-14.5,4c-3.9-5.6-0.8-21.4,1.4-30.6c1-4.1,1.9-6.9,1.9-6.9
	l12.8-2.1c0,0,0,2.8,0.3,6.2c0.4,4.6,1.2,10.3,3,11.6C585.2,345.4,586.6,372.2,583.5,375.6z"/>
<path class="st7" d="M576.8,162.4c0,0-22.3-0.2-27.8,11.6c-5.5,11.9-5.7,15.9-7.8,17.8c-2.1,1.9,23.2,11.9,23.2,11.9l1.2,40.8
	c0,0,5-5,13-2.8c8.1,2.3,18.3,0,18.3,0s-0.5-0.9,6.2,0c6.6,0.9,27.8-10.3,27.8-10.3s0.3-17.9-0.1-21.7c-0.5-3.8,15.1-31.7,15.1-31.7
	s12.1-11.6-0.5-15.7c0,0-4.4-6.7-15.9-6.6C618.1,155.9,576.8,162.4,576.8,162.4z"/>
<path class="st4" d="M576.8,161.7c0,0-22.3-0.2-27.8,11.6c-5.5,11.9-5.7,15.9-7.8,17.8c-2.1,1.9,23.2,11.9,23.2,11.9l1.2,40.8
	c0,0,5-5,13-2.8c8.1,2.3,18.3,0,18.3,0s-0.5-0.9,6.2,0c6.6,0.9,27.8-10.3,27.8-10.3s8.3-13.5,7.8-17.3c-0.5-3.8,16.6-32.5,16.6-32.5
	s2.6-15.2-10-19.2c0,0-4.4-6.7-15.9-6.6C618.1,155.2,576.8,161.7,576.8,161.7z"/>
<path class="st7" d="M579.1,331.4c-4.9-1.5-12.6,1.8-15,2.8c1-4.1,1.9-6.9,1.9-6.9l12.8-2.1C578.8,325.2,578.8,328,579.1,331.4z"/>
<path class="st4" d="M548.1,191.2h-6.9c0,0-1.4,14.5,0,18.8c1.4,4.3,2.1,3.7,1.7,6.8s3.3,8,3.3,8s0.5,11.9,2.8,16.4
	c2.4,4.4-2.6,24.4-2.6,24.4c1.4,3.4,3.4,6.6,5.9,9.3c4,4,6.2,19,5,24.7c-1.2,5.7,3.3,7.8,3.3,7.8s1.9,26.6,2.6,26.6
	c0.7,0,14.5-7.1,18.7-1l-3.3-24.4l0.2-47.2c0,0-4.5-5.9-2.1-11.2c2.4-5.2-1.9-17.6-1.9-17.6l-6.2-27.5L548.1,191.2z"/>
<path class="st2" d="M505.4,566.3c0,0-10-2.1-10.2,0s-11.9,24,2.6,30.4s53.1,20.2,116,2.4c0,0,4,1.4,3.1-7.4
	c-0.9-8.8-0.9-18.5-0.9-18.5s-9.5-2.6-16.6-1.7C592.3,572.5,530.3,585.1,505.4,566.3z"/>
<path class="st7" d="M505.4,566.3c0,0-10-2.1-10.2,0s-11.9,24,2.6,30.4s53.1,20.2,116,2.4c0,0,4,1.4,3.1-7.4
	c-0.9-8.8-0.9-18.5-0.9-18.5s-9.5-2.6-16.6-1.7C592.3,572.5,530.3,585.1,505.4,566.3z"/>
<path class="st2" d="M505.4,563.5c0,0-10-2.1-10.2,0c-0.2,2.1-11.9,24,2.6,30.4c14.5,6.4,53.1,20.2,116,2.4c0,0,4,1.4,3.1-7.4
	c-0.9-8.8-0.9-18.5-0.9-18.5s-9.5-2.6-16.6-1.7C592.3,569.6,530.3,582.2,505.4,563.5z"/>
<path class="st3" d="M563.5,199.7c-0.6,3.5-2,6.8-2.2,10.4c-0.2,3.5,1.1,7.5,4.4,8.9c0.9,0.3,1.8,0.6,2.6,1.1c1.3,0.8,1.8,2.4,2,3.9
	c0.3,1.9,0.4,3.9,0.2,5.9c-0.2,2-0.6,4.1,0.4,5.8c1.7,3,6.1,2.6,9.5,1.7l-1.2,9c-0.1,0.7-0.1,1.5,0.4,2c0.5,0.3,1.1,0.5,1.7,0.4
	c2.9-0.2,6-0.6,8.5-2.1c2.5-1.5,4.4-4.4,3.9-7.3c-0.6-3.4-4-6-3.6-9.4c0.4-2.6,2.9-4.3,4.6-6.3c3-3.7,3.2-9.3,0.8-13.4
	c-2.4-4.2-7-6.7-11.7-7.2c-2.6-0.3-5.4,0.1-7.8-0.9c-1.7-0.6-3.1-2.1-3.6-3.8"/>
<path class="st9" d="M480.7,516.2l2.5-5.4c0,0,13.4-12.5,16.5-13.4c3.1-0.9,15.7-4.7,17.6-4.7s36.5-1.9,36.5-1.9l4,9.5l-43.5,9.5
	l-14.7,10.7L480.7,516.2z"/>
<path class="st5" d="M585.2,370.5l-2.3,17.5l-0.9,6.7l-10.2,1.4c0,0-1.1-2.4-2.7-6c-4.7-11-13.6-33.7-8.5-37.7
	c6.9-5.2,8.5,12.1,8.5,12.1l7.8-3.8L585.2,370.5z"/>
<rect x="532" y="403.1" class="st10" width="51.5" height="77.8"/>
<rect x="532" y="403.1" class="st7" width="51.5" height="77.8"/>
<rect x="536.6" y="416.2" transform="matrix(0.1463 -0.9892 0.9892 0.1463 54.0801 946.6545)" class="st10" width="77.8" height="51.5"/>
<rect x="550.7" y="415.6" transform="matrix(0.1463 -0.9892 0.9892 0.1463 63.0035 930.6575)" class="st11" width="40.1" height="26.5"/>
<rect x="562.7" y="448.6" transform="matrix(0.1463 -0.9892 0.9892 0.1463 24.5094 957.6595)" class="st11" width="8.7" height="32.1"/>
<circle class="st7" cx="597" cy="176.9" r="29.8"/>
<circle class="st8" cx="597" cy="176.2" r="29.8"/>
<path class="st3" d="M572.5,198.3c-0.2-0.8-0.1-1.6,0.2-2.3c1.1-2.4,4.4-2.6,7-2.4c6.1,0.3,12.9,0.3,17.7-3.6c2-1.6,4.2-5.6,7.1-4.8
	c2.6,0.7,3.7,4.2,6.3,4.9c1.9,0.6,4-0.3,5.9-0.7c2.8-0.6,5.8-0.1,8.7-0.1c2.9,0,6-0.5,8-2.6c2.7-2.8,2.2-7.3,2-11.2
	c-0.3-5,0-10.1,1-15c1-4.9,2.5-10.4-0.3-14.7c-2.6-4-8-5.1-11.6-8.2c-3.4-2.8-5.2-7.4-8.9-10.1c-4.6-3.3-10.8-2.8-16.4-2.3
	l-12.2,1.3c-3.1,0.3-6.4,0.7-9,2.6c-4.7,3.4-5.3,10.4-9.7,14.1c-2,1.6-4.5,2.4-6.7,3.7c-2.2,1.2-4.4,3.2-4.7,5.7
	c-0.2,2.1,0.9,4.1,1.5,6.2c1.3,4.9-0.7,10-2.1,14.9c-1.3,4.9-1.6,11,2.3,14.2c0.8,0.7,1.7,1.2,2.5,1.9c2.6,2.4,3,6.4,2.4,9.9"/>
<ellipse class="st3" cx="599.4" cy="211.6" rx="0.7" ry="1.8"/>
<ellipse class="st3" cx="599.4" cy="219" rx="0.7" ry="1.8"/>
<path class="st8" d="M583.7,375.6c0.8-0.9,1.3-3.1,1.6-6.1l-8.5-10.6C576.7,358.9,580.3,379.4,583.7,375.6z"/>
<path class="st7" d="M593.2,550.4c0,0-13.9,21.5-57.4,19.2c-41-2.1-61-22.3-60-29.4c1-7.1-2.6-24.4,6.2-29.4
	c5.1-2.9,11.8-1.2,16.5,0.8c3.3,1.4,7.1,0.7,9.8-1.8c4.3-3.9,12.4-8.3,25.1-4.8c1.6,0.4,3.4,0.4,5-0.1c5.3-1.6,17.9-4.4,27.1,1.8
	c3,2,6.8,2.2,9.9,0.4l0.1-0.1c4.3-2.6,24.2,22.1,24.2,22.1S600.6,548,593.2,550.4z"/>
<path class="st9" d="M593.2,551.1c0,0-13.9,21.5-57.4,19.2c-41-2.1-61-22.3-60-29.4c1-7.1-2.6-24.4,6.2-29.4
	c5.1-2.9,11.8-1.2,16.5,0.8c3.3,1.4,7.1,0.7,9.8-1.8c4.3-3.9,12.4-8.3,25.1-4.8c1.6,0.4,3.4,0.4,5-0.1c5.3-1.6,17.9-4.4,27.1,1.8
	c3,2,6.8,2.2,9.9,0.4l0.1-0.1c4.3-2.6,24.2,22.1,24.2,22.1S600.6,548.8,593.2,551.1z"/>
<ellipse transform="matrix(0.9239 -0.3827 0.3827 0.9239 -162.4926 245.4737)" class="st7" cx="535.8" cy="531.2" rx="28.4" ry="28.4"/>
<ellipse transform="matrix(0.9239 -0.3827 0.3827 0.9239 -162.765 245.5279)" class="st5" cx="535.8" cy="531.9" rx="28.4" ry="28.4"/>
<path class="st12" d="M527.7,507.4c-3,0.8-5.9,2.3-7.4,4.9c-0.9,1.5-1.2,3.4-2.4,4.6c-1.8,1.8-4.8,1.8-7.2,2.8c-2.4,1-4,4.6-1.7,5.7
	c-2.5,0.1-4.3,2.4-4.6,4.7s0.6,4.5,1.4,6.7c2.7,7,5.6,14.3,11.6,19.3c9.8,8.1,24.5,7.8,37.6,6.9c1.1,0,2.1-0.2,3.1-0.7
	c1.4-0.9,1.6-2.7,1.8-4.3c1-6.7,4.6-12.9,7-19.3c2.4-6.4,3.4-14-0.7-19.7C560.3,510.5,537.6,504.7,527.7,507.4z"/>
<path class="st7" d="M582.9,388l-0.9,6.7l-10.2,1.4c0,0-1.1-2.4-2.7-6l13.6-2.5L582.9,388z"/>
<path class="st9" d="M593.7,536.6l5.9-6.9l-1.2-38c0.6-2.7,1-5.5,1.2-8.3c0.2-4-3-13-3-13c0.5-1.8,1.2-3.6,2-5.2
	c1.4-2.8-2-9.3-2-9.3s-5.1-16.6-3-24.9c2.1-8.3-0.5-13-0.5-13s-2.1-9.3-1.9-13c0.2-3.8-4.7-7.4-4.7-7.4l-3.8-9.3l-15.2,2.8v32
	c0,0,0.9,30.6,0,36.5c-0.9,5.9,1.9,11.6,1.9,11.6s-1.7,8.8-0.2,12.1c1.4,3.3,4.3,11.4,4.3,11.4c-0.5,2.9-0.4,5.8,0.5,8.7
	c1.4,4.2,0,6.5,0,6.5L593.7,536.6z"/>
<g class="st13">
	<path d="M636.4,158.1c-0.8,4.2-1.2,8.4-1.1,12.6c0.1-3.5,0.4-7,1.1-10.5c0.6-3.2,1.4-6.6,1.3-9.7C637.4,153,637,155.6,636.4,158.1z
		"/>
	<path d="M561.2,187.4c-0.8-0.7-1.7-1.2-2.5-1.9c-2.1-1.8-3-4.3-3.1-7.1c-0.2,3.6,0.5,7,3.1,9.3c0.8,0.7,1.7,1.2,2.5,1.9
		c1.6,1.6,2.5,3.7,2.6,5.9C564,192.5,563.4,189.4,561.2,187.4z"/>
	<path d="M558.9,160.9c0.1-1.5,0-3-0.4-4.5c-0.4-1.5-1.2-3-1.4-4.5c0,0.2-0.1,0.3-0.1,0.5c-0.2,2.1,0.9,4.1,1.5,6.2
		C558.7,159.3,558.8,160.1,558.9,160.9z"/>
	<path d="M633.4,184.3c-2,2.1-5.1,2.7-8,2.6c-2.9,0-5.8-0.5-8.7,0.1c-2,0.4-4,1.3-5.9,0.7c-2.7-0.8-3.8-4.3-6.3-4.9
		c-2.9-0.8-5.2,3.2-7.1,4.8c-4.8,3.8-11.5,3.8-17.7,3.6c-2.6-0.1-5.8,0.1-7,2.4c-0.3,0.7-0.4,1.5-0.2,2.3l-8.7,1.4
		c0,0.7-0.1,1.4-0.2,2.1l8.9-1.4c-0.2-0.8-0.1-1.6,0.2-2.3c1.1-2.4,4.3-2.6,7-2.4c6.1,0.3,12.9,0.3,17.7-3.6c2-1.6,4.2-5.6,7.1-4.8
		c2.6,0.7,3.6,4.2,6.3,4.9c1.9,0.6,4-0.3,5.9-0.7c2.8-0.6,5.8-0.1,8.7-0.1c2.9,0,6-0.5,8-2.6c2-2.1,2.3-5.3,2.1-8.3
		C635.4,180.4,635,182.6,633.4,184.3z"/>
</g>
<g class="st13">
	<path d="M567.5,218.5c-0.8-0.4-1.7-0.8-2.6-1.1c-1.5-0.7-2.8-2-3.4-3.5c0.5,2.5,1.9,4.7,4.2,5.7c0.9,0.3,1.8,0.6,2.6,1.1
		c0.5,0.4,1,0.9,1.3,1.5C569.2,220.7,568.7,219.3,567.5,218.5z"/>
	<path d="M579.7,235.8c-3.3,0.8-7.6,1.3-9.4-1.5c0.1,0.7,0.2,1.3,0.6,1.9c1.5,2.7,5.3,2.6,8.5,2L579.7,235.8z"/>
	<path d="M593,237.8c0.5,2.9-1.4,5.8-3.9,7.3c-2.5,1.5-5.5,1.9-8.5,2.1c-0.5,0.1-0.9,0-1.4-0.2c-0.4,0.9,0,1.9,0.9,2.2
		c0.4,0.2,0.8,0.2,1.2,0.1c2.9-0.2,6-0.6,8.5-2.1c2.5-1.5,4.4-4.4,3.9-7.3C593.5,239.1,593.3,238.4,593,237.8z"/>
	<path d="M596.1,212c0.9,3.5,0.1,7.2-2.1,10.1c-1.7,2-4.2,3.7-4.6,6.3c-0.1,1.2,0.1,2.4,0.7,3.5c-0.1-0.4-0.1-0.9,0-1.3
		c0.4-2.6,2.9-4.3,4.6-6.3C597.5,220.9,597.8,216,596.1,212z"/>
</g>
<g class="st13">
	<path d="M510.6,520.8c2.4-1,5.4-1,7.2-2.8c1.3-1.3,1.6-3.1,2.4-4.6c1.4-2.5,4.4-4.1,7.4-4.9c10-2.7,32.7,3.1,38.6,11.5
		c1.7,2.5,2.7,5.5,2.7,8.6c0.2-3.5-0.7-7.1-2.7-10c-5.9-8.4-28.6-14.2-38.6-11.5c-3,0.8-5.9,2.3-7.4,4.9c-0.9,1.5-1.2,3.3-2.4,4.6
		c-1.8,1.8-4.8,1.8-7.2,2.8c-1.8,0.8-3.2,3-2.7,4.5C508.3,522.5,509.3,521.4,510.6,520.8z"/>
	<path d="M504.4,531.2c0.3-2.3,2.1-4.6,4.6-4.7c-0.5-0.2-0.9-0.7-1.1-1.2c-1.9,0.7-3.3,2.4-3.6,4.5c-0.1,0.6-0.1,1.2,0,1.7
		C504.4,531.4,504.4,531.3,504.4,531.2z"/>
</g>
<rect x="590.4" y="273.2" class="st10" width="64.8" height="84.5"/>
<rect x="590.4" y="273.2" class="st7" width="64.8" height="84.5"/>
<rect x="622.7" y="283" transform="matrix(0.9855 -0.1695 0.1695 0.9855 -45.6566 115.7673)" class="st10" width="64.8" height="84.5"/>
<rect x="633.1" y="344.4" transform="matrix(0.9855 -0.1695 0.1695 0.9855 -50.7998 113.7429)" class="st11" width="15.2" height="19.8"/>
<rect x="653.9" y="340.9" transform="matrix(0.9855 -0.1695 0.1695 0.9855 -49.8936 117.2098)" class="st11" width="15.2" height="19.8"/>
<rect x="630.6" y="315.4" transform="matrix(0.9856 -0.1692 0.1692 0.9856 -45.5901 115.9417)" class="st11" width="53.4" height="19.9"/>
<rect x="625" y="292.1" transform="matrix(0.9856 -0.1692 0.1692 0.9856 -40.4117 114.5294)" class="st11" width="53.4" height="4.4"/>
<rect x="626.7" y="300.2" transform="matrix(0.9856 -0.1692 0.1692 0.9856 -41.7515 114.9377)" class="st11" width="53.4" height="4.4"/>
<path class="st8" d="M626.8,250.2c0,0-29.8,29.9-14.8,37.5s24.7-25.3,24.7-25.3l2.4-7.5L626.8,250.2z"/>
<path class="st7" d="M624.2,247.6l-3.7,8.1c0,0,18.2,2.5,21.9,8l-2.2-14.3l-2.7-6.1L624.2,247.6z"/>
<path class="st4" d="M624.9,246.9l-3.7,8.1c0,0,18.2,2.5,21.9,8l-2.2-14.3l-2.7-6.1L624.9,246.9z"/>
<polygon class="st14" points="734.8,396.4 734.4,396.6 734.9,396.9 735.5,396.8 735.6,396.4 "/>
<polygon class="st7" points="734.8,396.4 734.4,396.6 734.9,396.9 735.5,396.8 735.6,396.4 "/>
<polygon class="st15" points="734.8,396.4 734.4,396.6 734.1,396.2 734.3,395.9 734.4,395.9 "/>
<polygon class="st7" points="734.8,396.4 734.4,396.6 734.1,396.2 734.3,395.9 734.4,395.9 "/>
<path class="st15" d="M804.9,347.2l-29.1-42.1c-1.1-1.6-3.2-2-4.8-0.9c0,0,0,0,0,0l-65,44.6c-1.6,1.1-2,3.2-0.9,4.8l29.1,42.6
	L804.9,347.2z"/>
<path class="st7" d="M804.9,347.2l-29.1-42.1c-1.1-1.6-3.2-2-4.8-0.9c0,0,0,0,0,0l-65,44.6c-1.6,1.1-2,3.2-0.9,4.8l29.1,42.6
	L804.9,347.2z"/>
<path class="st15" d="M805.6,347.3l-29.1-42.1c-1.1-1.6-3.3-2-4.8-0.9c0,0,0,0,0,0l-65,44.6c-1.6,1.1-2,3.2-0.9,4.8l29.1,42.6
	L805.6,347.3z"/>
<path class="st14" d="M829.9,355.6l-24.2-7.8l-70.8,49.1l24.6,8c1.1,0.4,2.3,0.2,3.3-0.5l67.3-47.5c0.3-0.2,0.5-0.6,0.3-1
	C830.3,355.7,830.1,355.6,829.9,355.6z"/>
<path class="st7" d="M829.9,355.6l-24.2-7.8l-70.8,49.1l24.6,8c1.1,0.4,2.3,0.2,3.3-0.5l67.3-47.5c0.3-0.2,0.5-0.6,0.3-1
	C830.3,355.7,830.1,355.6,829.9,355.6z"/>
<path class="st14" d="M829.8,355.1l-24.2-7.8l-70.8,49.1l24.6,8c1.1,0.4,2.3,0.2,3.3-0.5l67.3-47.5c0.3-0.2,0.4-0.6,0.2-1
	C830.1,355.2,830,355.1,829.8,355.1z"/>
<g class="st13">
	<path d="M794.1,345.4l-1.8-2.6c-0.2-0.3-0.6-0.4-1-0.2l-2.7,1.8c-0.3,0.2-0.4,0.6-0.2,1l1.6,2.5c0.2,0.3,0.6,0.4,1,0.2l2.8-1.8
		C794.2,346.1,794.3,345.7,794.1,345.4z"/>
	<path d="M789.4,348.7l-1.8-2.6c-0.2-0.3-0.6-0.4-1-0.2l-2.6,1.8c-0.3,0.2-0.4,0.6-0.2,1l1.6,2.5c0.2,0.3,0.6,0.4,1,0.2l2.8-1.8
		C789.5,349.5,789.6,349,789.4,348.7C789.4,348.7,789.4,348.7,789.4,348.7z"/>
	<path d="M784.4,352.1l-1.8-2.6c-0.2-0.3-0.6-0.4-1-0.2l-2.7,1.8c-0.3,0.2-0.4,0.6-0.2,1l1.6,2.5c0.2,0.3,0.6,0.4,1,0.2l2.8-1.8
		C784.5,352.9,784.6,352.5,784.4,352.1C784.4,352.2,784.4,352.2,784.4,352.1z"/>
	<path d="M779.3,355.7l-1.8-2.6c-0.2-0.3-0.6-0.4-1-0.2l-2.7,1.8c-0.3,0.2-0.4,0.6-0.2,1l1.6,2.5c0.2,0.3,0.6,0.4,1,0.2l2.8-1.8
		C779.4,356.4,779.5,356,779.3,355.7C779.3,355.7,779.3,355.7,779.3,355.7z"/>
	<path d="M774.2,359.2l-1.8-2.6c-0.2-0.3-0.6-0.4-1-0.2l-2.6,1.8c-0.3,0.2-0.4,0.6-0.2,1l1.6,2.5c0.2,0.3,0.6,0.4,1,0.2l2.8-1.8
		C774.3,359.9,774.4,359.5,774.2,359.2C774.2,359.2,774.2,359.2,774.2,359.2z"/>
	<path d="M769.4,363l-2.2-3.2c-0.1-0.1-0.3-0.2-0.4-0.1c0,0,0,0,0,0l-3.3,2.2c-0.1,0.1-0.2,0.3-0.1,0.4c0,0,0,0,0,0l2,3.1
		c0.1,0.2,0.3,0.2,0.4,0.1l3.4-2.1C769.4,363.4,769.5,363.2,769.4,363C769.4,363,769.4,363,769.4,363z"/>
	<path d="M764.3,366.5l-2.2-3.2c-0.1-0.1-0.3-0.2-0.5-0.1c0,0,0,0,0,0l-3.3,2.2c-0.1,0.1-0.2,0.3-0.1,0.4l2,3.1
		c0.1,0.1,0.3,0.2,0.4,0.1c0,0,0,0,0,0l3.4-2.1C764.3,366.9,764.4,366.7,764.3,366.5C764.3,366.6,764.3,366.5,764.3,366.5z"/>
	<path d="M759.8,369.6l-2.2-3.1c-0.1-0.1-0.3-0.2-0.4-0.1l-3.3,2.2c-0.1,0.1-0.2,0.3-0.1,0.5l2,3.1c0.1,0.1,0.3,0.2,0.4,0.1l3.4-2.1
		C759.9,370.1,759.9,369.9,759.8,369.6C759.8,369.7,759.8,369.6,759.8,369.6z"/>
	<path d="M754.8,373.1l-2.2-3.2c-0.1-0.1-0.3-0.2-0.4-0.1l-3.3,2.2c-0.2,0.1-0.2,0.3-0.1,0.5c0,0,0,0,0,0l2,3.1
		c0.1,0.1,0.3,0.2,0.4,0.1l3.4-2.1C754.8,373.5,754.9,373.3,754.8,373.1C754.8,373.1,754.8,373.1,754.8,373.1z"/>
	<path d="M749.9,376.4l-2.2-3.2c-0.1-0.1-0.3-0.2-0.4-0.1c0,0,0,0,0,0l-3.3,2.2c-0.1,0.1-0.2,0.3-0.1,0.4c0,0,0,0,0,0l2,3.1
		c0.1,0.2,0.3,0.2,0.4,0.1l3.4-2.1C750,376.8,750,376.6,749.9,376.4C749.9,376.5,749.9,376.5,749.9,376.4z"/>
	<path d="M745,379.8l-2.2-3.2c-0.1-0.1-0.3-0.2-0.4-0.1l-3.3,2.2c-0.2,0.1-0.2,0.3-0.1,0.5c0,0,0,0,0,0l2,3.1
		c0.1,0.1,0.3,0.2,0.4,0.1l3.4-2.1C745.1,380.2,745.2,380,745,379.8C745.1,379.9,745,379.9,745,379.8z"/>
	<path d="M740.2,383.2l-2.2-3.2c-0.1-0.1-0.3-0.2-0.4-0.1c0,0,0,0,0,0l-3.3,2.2c-0.1,0.1-0.2,0.3-0.1,0.4c0,0,0,0,0,0l2,3.1
		c0.1,0.2,0.3,0.2,0.4,0.1l3.4-2.1C740.2,383.6,740.3,383.4,740.2,383.2C740.2,383.2,740.2,383.2,740.2,383.2z"/>
	<path d="M790.9,340.7l-1.8-2.6c-0.2-0.3-0.6-0.4-1-0.2l-2.6,1.8c-0.3,0.2-0.4,0.6-0.2,1l1.6,2.5c0.2,0.3,0.6,0.4,1,0.2l2.8-1.8
		C791.1,341.5,791.2,341.1,790.9,340.7z"/>
	<path d="M783.9,330.6l-1.8-2.6c-0.2-0.3-0.6-0.4-1-0.2l-2.7,1.8c-0.3,0.2-0.4,0.6-0.2,1l1.6,2.5c0.2,0.3,0.6,0.4,1,0.2l2.8-1.8
		C784,331.4,784.1,330.9,783.9,330.6z"/>
	<path d="M786.2,344l-1.8-2.6c-0.2-0.3-0.6-0.4-1-0.2l-2.7,1.8c-0.3,0.2-0.4,0.6-0.2,1l1.6,2.5c0.2,0.3,0.6,0.4,1,0.2l2.8-1.8
		C786.3,344.8,786.4,344.4,786.2,344C786.2,344.1,786.2,344,786.2,344z"/>
	<path d="M781.1,347.5l-1.8-2.6c-0.2-0.3-0.6-0.4-1-0.2l-2.6,1.8c-0.3,0.2-0.4,0.6-0.2,1l1.6,2.5c0.2,0.3,0.6,0.4,1,0.2l2.8-1.8
		C781.3,348.3,781.3,347.8,781.1,347.5z"/>
	<path d="M776.1,351l-1.8-2.6c-0.2-0.3-0.6-0.4-1-0.2l-2.7,1.8c-0.3,0.2-0.4,0.6-0.2,1l1.6,2.5c0.2,0.3,0.6,0.4,1,0.2l2.8-1.8
		C776.2,351.8,776.3,351.4,776.1,351C776.1,351,776.1,351,776.1,351z"/>
	<path d="M779.3,334.1l-1.8-2.6c-0.2-0.3-0.6-0.4-1-0.2l-2.7,1.8c-0.3,0.2-0.4,0.6-0.2,1l1.6,2.5c0.2,0.3,0.6,0.4,1,0.2l2.8-1.8
		C779.4,334.9,779.5,334.4,779.3,334.1C779.3,334.1,779.3,334.1,779.3,334.1z"/>
	<path d="M774.2,337.6l-1.8-2.6c-0.2-0.3-0.6-0.4-1-0.2l-2.6,1.8c-0.3,0.2-0.4,0.6-0.2,1l1.6,2.5c0.2,0.3,0.6,0.4,1,0.2l2.8-1.8
		C774.4,338.3,774.4,337.9,774.2,337.6z"/>
	<path d="M769.2,341.1l-1.8-2.6c-0.2-0.3-0.6-0.4-1-0.2l-2.7,1.8c-0.3,0.2-0.4,0.6-0.2,1l1.6,2.5c0.2,0.3,0.6,0.4,1,0.2l2.8-1.8
		C769.3,341.9,769.4,341.4,769.2,341.1C769.2,341.1,769.2,341.1,769.2,341.1z"/>
	<path d="M771,354.5l-1.8-2.6c-0.2-0.3-0.6-0.4-1-0.2l-2.6,1.8c-0.3,0.2-0.4,0.6-0.2,1l1.6,2.5c0.2,0.3,0.6,0.4,1,0.2l2.8-1.8
		C771.1,355.3,771.2,354.9,771,354.5C771,354.5,771,354.5,771,354.5z"/>
	<path d="M765.9,358l-1.8-2.6c-0.2-0.3-0.6-0.4-1-0.2l-2.6,1.8c-0.3,0.2-0.4,0.6-0.2,1l1.6,2.5c0.2,0.3,0.6,0.4,1,0.2l2.8-1.8
		C766.1,358.8,766.1,358.4,765.9,358C765.9,358.1,765.9,358.1,765.9,358z"/>
	<path d="M761.1,361.9l-2.2-3.2c-0.1-0.1-0.3-0.2-0.4-0.1c0,0,0,0,0,0l-3.3,2.2c-0.1,0.1-0.2,0.3-0.1,0.4c0,0,0,0,0,0l2,3.1
		c0.1,0.2,0.3,0.2,0.4,0.1c0,0,0,0,0,0l3.4-2.1C761.1,362.3,761.2,362.1,761.1,361.9C761.1,361.9,761.1,361.9,761.1,361.9z"/>
	<path d="M756.6,365l-2.2-3.2c-0.1-0.1-0.3-0.2-0.4-0.1l-3.3,2.2c-0.1,0.1-0.2,0.3-0.1,0.5l2,3.1c0.1,0.1,0.3,0.2,0.4,0.1l3.4-2.1
		C756.7,365.4,756.7,365.2,756.6,365C756.6,365,756.6,365,756.6,365z"/>
	<path d="M751.6,368.5l-2.2-3.2c-0.1-0.1-0.3-0.2-0.4-0.1l-3.3,2.2c-0.1,0.1-0.2,0.3-0.1,0.4c0,0,0,0,0,0l2,3.1
		c0.1,0.1,0.3,0.2,0.4,0.1l3.4-2.1C751.6,368.9,751.7,368.7,751.6,368.5C751.6,368.5,751.6,368.5,751.6,368.5z"/>
	<path d="M746.7,371.8l-2.2-3.2c-0.1-0.1-0.3-0.2-0.4-0.1c0,0,0,0,0,0l-3.3,2.2c-0.1,0.1-0.2,0.3-0.1,0.4c0,0,0,0,0,0l2,3.1
		c0.1,0.2,0.3,0.2,0.4,0.1l3.4-2.1C746.8,372.2,746.8,372,746.7,371.8C746.7,371.8,746.7,371.8,746.7,371.8z"/>
	<path d="M777.8,342.7l-1.8-2.6c-0.2-0.3-0.6-0.4-1-0.2l-2.7,1.8c-0.3,0.2-0.4,0.6-0.2,1l1.6,2.5c0.2,0.3,0.6,0.4,1,0.2l2.8-1.8
		C777.9,343.5,778,343,777.8,342.7C777.8,342.7,777.8,342.7,777.8,342.7z"/>
	<path d="M772.7,346.2l-1.8-2.6c-0.2-0.3-0.6-0.4-1-0.2l-2.6,1.8c-0.3,0.2-0.4,0.6-0.2,1l1.6,2.5c0.2,0.3,0.6,0.4,1,0.2l2.8-1.8
		C772.9,347,772.9,346.5,772.7,346.2C772.7,346.2,772.7,346.2,772.7,346.2z"/>
	<path d="M767.7,349.7l-1.8-2.6c-0.2-0.3-0.6-0.4-1-0.2l-2.7,1.8c-0.3,0.2-0.4,0.6-0.2,1l1.6,2.5c0.2,0.3,0.6,0.4,1,0.2l2.8-1.8
		C767.8,350.5,767.9,350.1,767.7,349.7C767.7,349.7,767.7,349.7,767.7,349.7z"/>
	<path d="M762.6,353.2l-1.8-2.6c-0.2-0.3-0.6-0.4-1-0.2l-2.7,1.8c-0.3,0.2-0.4,0.6-0.2,1l1.6,2.6c0.2,0.3,0.6,0.4,1,0.2l2.8-1.8
		C762.7,354,762.8,353.6,762.6,353.2C762.6,353.3,762.6,353.2,762.6,353.2z"/>
	<path d="M757.8,357.1l-2.2-3.2c-0.1-0.1-0.3-0.2-0.4-0.1c0,0,0,0,0,0l-3.3,2.2c-0.1,0.1-0.2,0.3-0.1,0.4l2,3.1
		c0.1,0.1,0.3,0.2,0.4,0.1c0,0,0,0,0,0l3.4-2.1C757.8,357.5,757.9,357.3,757.8,357.1C757.8,357.1,757.8,357.1,757.8,357.1z"/>
	<path d="M753.3,360.2L751,357c-0.1-0.1-0.3-0.2-0.5-0.1l-3.3,2.2c-0.1,0.1-0.2,0.3-0.1,0.5l2,3.1c0.1,0.2,0.3,0.2,0.4,0.1l3.4-2.1
		C753.3,360.6,753.4,360.4,753.3,360.2C753.3,360.2,753.3,360.2,753.3,360.2z"/>
	<path d="M748.2,363.6l-2.2-3.2c-0.1-0.1-0.3-0.2-0.5-0.1l-3.3,2.2c-0.1,0.1-0.2,0.3-0.1,0.5l2.1,3.1c0.1,0.2,0.3,0.2,0.4,0.1
		l3.4-2.1C748.3,364,748.4,363.8,748.2,363.6C748.3,363.7,748.2,363.6,748.2,363.6z"/>
	<path d="M743.4,367l-2.2-3.2c-0.1-0.1-0.3-0.2-0.5-0.1c0,0,0,0,0,0l-3.3,2.2c-0.1,0.1-0.2,0.3-0.1,0.4l2,3.1
		c0.1,0.1,0.3,0.2,0.4,0.1c0,0,0,0,0,0l3.4-2.1C743.4,367.4,743.5,367.2,743.4,367C743.4,367.1,743.4,367,743.4,367z"/>
	<path d="M741.8,375.2l-2.2-3.2c-0.1-0.1-0.3-0.2-0.4-0.1l-3.3,2.2c-0.1,0.1-0.2,0.3-0.1,0.4c0,0,0,0,0,0l2,3.1
		c0.1,0.1,0.3,0.2,0.4,0.1l3.4-2.1C741.9,375.6,741.9,375.4,741.8,375.2C741.8,375.2,741.8,375.2,741.8,375.2z"/>
	<path d="M737,378.6l-2.2-3.2c-0.1-0.1-0.3-0.2-0.4-0.1c0,0,0,0,0,0l-3.3,2.2c-0.1,0.1-0.2,0.3-0.1,0.4c0,0,0,0,0,0l2,3.1
		c0.1,0.2,0.3,0.2,0.4,0.1l3.4-2.1C737,379,737.1,378.8,737,378.6C737,378.6,737,378.6,737,378.6z"/>
	<path d="M744.6,358.4l-2.1-3c-0.1-0.2-0.4-0.2-0.6-0.1l-3.1,2.1c-0.2,0.1-0.3,0.4-0.1,0.6c0,0,0,0,0,0l1.9,3
		c0.1,0.2,0.4,0.3,0.6,0.1c0,0,0,0,0,0l3.3-2C744.7,358.9,744.7,358.6,744.6,358.4C744.6,358.4,744.6,358.4,744.6,358.4z"/>
	<path d="M739.7,361.8l-2.1-3c-0.1-0.2-0.4-0.2-0.6-0.1c0,0,0,0,0,0l-3.1,2.1c-0.2,0.1-0.3,0.4-0.1,0.6c0,0,0,0,0,0l1.9,3
		c0.1,0.2,0.4,0.3,0.6,0.1l3.3-2C739.8,362.3,739.9,362,739.7,361.8C739.8,361.8,739.7,361.8,739.7,361.8z"/>
	<path d="M734.9,365.2l-2.1-3c-0.1-0.2-0.4-0.2-0.6-0.1l-3.1,2.1c-0.2,0.1-0.3,0.4-0.1,0.6c0,0,0,0,0,0l1.9,3
		c0.1,0.2,0.4,0.3,0.6,0.1c0,0,0,0,0,0l3.3-2C734.9,365.6,735,365.4,734.9,365.2C734.9,365.2,734.9,365.2,734.9,365.2z"/>
	<path d="M730.1,368.6l-2.2-3.2c-0.1-0.1-0.3-0.2-0.4-0.1l-3.3,2.2c-0.1,0.1-0.2,0.3-0.1,0.5l2,3.1c0.1,0.1,0.3,0.2,0.4,0.1l3.4-2.1
		C730.1,369,730.2,368.8,730.1,368.6C730.1,368.7,730.1,368.6,730.1,368.6z"/>
	<path d="M787.7,335.8l-1.9-2.7c-0.2-0.3-0.7-0.4-1-0.2l-7.5,5.3c-0.3,0.2-0.4,0.6-0.2,1l1.8,2.8c0.2,0.3,0.7,0.4,1,0.2c0,0,0,0,0,0
		l7.6-5.3C787.8,336.5,787.9,336.1,787.7,335.8z"/>
	<path d="M738.5,370.3l-2.4-3.3c-0.1-0.1-0.3-0.2-0.4-0.1c0,0,0,0,0,0l-8.1,5.7c-0.1,0.1-0.2,0.3-0.1,0.4l2.2,3.4
		c0.1,0.2,0.3,0.2,0.5,0.1c0,0,0,0,0,0l8.3-5.8C738.5,370.6,738.6,370.4,738.5,370.3z"/>
	<path d="M764.3,344.8l-2.2-3.2c-0.1-0.1-0.3-0.2-0.4-0.1l-18.1,12.2c-0.1,0.1-0.2,0.3-0.1,0.4l2.2,3.4c0.1,0.2,0.3,0.2,0.5,0.1
		c0,0,0,0,0,0l18-12.4C764.4,345.1,764.4,344.9,764.3,344.8C764.3,344.8,764.3,344.8,764.3,344.8z"/>
</g>
<path class="st14" d="M794.6,345.5l-1.8-2.6c-0.2-0.3-0.6-0.4-1-0.2l-2.6,1.8c-0.3,0.2-0.4,0.6-0.2,1l1.6,2.5c0.2,0.3,0.6,0.4,1,0.2
	l2.8-1.8C794.7,346.2,794.8,345.8,794.6,345.5C794.6,345.5,794.6,345.5,794.6,345.5z"/>
<path class="st14" d="M789.8,348.8l-1.8-2.6c-0.2-0.3-0.6-0.4-1-0.2l-2.7,1.8c-0.3,0.2-0.4,0.6-0.2,1l1.6,2.5c0.2,0.3,0.6,0.4,1,0.2
	l2.8-1.8C789.9,349.5,790,349.1,789.8,348.8C789.8,348.8,789.8,348.8,789.8,348.8z"/>
<path class="st14" d="M784.8,352.2l-1.8-2.6c-0.2-0.3-0.6-0.4-1-0.2l-2.6,1.8c-0.3,0.2-0.4,0.6-0.2,1l1.6,2.5c0.2,0.3,0.6,0.4,1,0.2
	l2.8-1.8C785,353,785,352.6,784.8,352.2C784.8,352.2,784.8,352.2,784.8,352.2z"/>
<path class="st14" d="M779.7,355.7l-1.8-2.6c-0.2-0.3-0.6-0.4-1-0.2l-2.7,1.8c-0.3,0.2-0.4,0.7-0.2,1c0,0,0,0,0,0l1.6,2.5
	c0.2,0.3,0.6,0.4,1,0.2l2.8-1.8C779.9,356.6,780,356.1,779.7,355.7C779.8,355.8,779.8,355.8,779.7,355.7z"/>
<path class="st14" d="M774.7,359.3l-1.8-2.6c-0.2-0.3-0.6-0.4-1-0.2l-2.7,1.8c-0.3,0.2-0.4,0.6-0.2,1l1.6,2.5c0.2,0.3,0.6,0.4,1,0.2
	l2.8-1.8C774.8,360,774.9,359.6,774.7,359.3C774.7,359.3,774.7,359.3,774.7,359.3z"/>
<path class="st14" d="M769.8,363.1l-2.2-3.2c-0.1-0.1-0.3-0.2-0.4-0.1c0,0,0,0,0,0l-3.3,2.2c-0.1,0.1-0.2,0.3-0.1,0.4c0,0,0,0,0,0
	l2,3.1c0.1,0.2,0.3,0.2,0.4,0.1l3.4-2.1C769.9,363.5,769.9,363.3,769.8,363.1C769.8,363.1,769.8,363.1,769.8,363.1z"/>
<path class="st14" d="M764.8,366.6l-2.2-3.2c-0.1-0.1-0.3-0.2-0.5-0.1c0,0,0,0,0,0l-3.3,2.2c-0.1,0.1-0.2,0.3-0.1,0.4c0,0,0,0,0,0
	l2,3.1c0.1,0.1,0.3,0.2,0.4,0.1c0,0,0,0,0,0l3.4-2.1C764.8,367,764.9,366.8,764.8,366.6C764.8,366.6,764.8,366.6,764.8,366.6z"/>
<path class="st14" d="M760.3,369.7l-2.2-3.2c-0.1-0.1-0.3-0.2-0.4-0.1l-3.3,2.2c-0.1,0.1-0.2,0.3-0.1,0.5l2,3.1
	c0.1,0.1,0.3,0.2,0.4,0.1l3.4-2.1C760.3,370.1,760.4,369.9,760.3,369.7C760.3,369.7,760.3,369.7,760.3,369.7z"/>
<path class="st14" d="M755.2,373.2L753,370c-0.1-0.1-0.3-0.2-0.4-0.1l-3.3,2.2c-0.2,0.1-0.2,0.3-0.1,0.5c0,0,0,0,0,0l2,3.1
	c0.1,0.1,0.3,0.2,0.4,0.1l3.4-2.1C755.3,373.6,755.4,373.4,755.2,373.2C755.3,373.2,755.3,373.2,755.2,373.2z"/>
<path class="st14" d="M750.4,376.6l-2.2-3.2c-0.1-0.1-0.3-0.2-0.4-0.1c0,0,0,0,0,0l-3.3,2.2c-0.1,0.1-0.2,0.3-0.1,0.4c0,0,0,0,0,0
	l2,3.1c0.1,0.2,0.3,0.2,0.4,0.1c0,0,0,0,0,0l3.4-2.1C750.4,377,750.5,376.8,750.4,376.6C750.4,376.6,750.4,376.6,750.4,376.6z"/>
<path class="st14" d="M745.5,379.9l-2.2-3.2c-0.1-0.1-0.3-0.2-0.4-0.1l-3.3,2.2c-0.1,0.1-0.2,0.3-0.1,0.5l2,3.1
	c0.1,0.1,0.3,0.2,0.4,0.1l3.4-2.1C745.6,380.3,745.6,380.1,745.5,379.9C745.5,380,745.5,379.9,745.5,379.9z"/>
<path class="st14" d="M740.6,383.3l-2.2-3.2c-0.1-0.1-0.3-0.2-0.4-0.1c0,0,0,0,0,0l-3.3,2.2c-0.1,0.1-0.2,0.3-0.1,0.4c0,0,0,0,0,0
	l2,3.1c0.1,0.2,0.3,0.2,0.4,0.1c0,0,0,0,0,0l3.4-2.1C740.7,383.7,740.8,383.5,740.6,383.3C740.7,383.3,740.6,383.3,740.6,383.3z"/>
<path class="st14" d="M791.4,340.8l-1.8-2.6c-0.2-0.3-0.6-0.4-1-0.2l-2.7,1.8c-0.3,0.2-0.4,0.6-0.2,1l1.6,2.5c0.2,0.3,0.6,0.4,1,0.2
	l2.8-1.8C791.5,341.6,791.6,341.2,791.4,340.8C791.4,340.9,791.4,340.9,791.4,340.8z"/>
<path class="st14" d="M784.4,330.7l-1.8-2.6c-0.2-0.3-0.6-0.4-1-0.2l-2.7,1.8c-0.3,0.2-0.4,0.6-0.2,1l1.6,2.5c0.2,0.3,0.6,0.4,1,0.2
	l2.8-1.8C784.5,331.5,784.6,331,784.4,330.7C784.4,330.7,784.4,330.7,784.4,330.7z"/>
<path class="st14" d="M786.6,344.1l-1.8-2.6c-0.2-0.3-0.6-0.4-1-0.2l-2.7,1.8c-0.3,0.2-0.4,0.6-0.2,1l1.6,2.5c0.2,0.3,0.6,0.4,1,0.2
	l2.8-1.8C786.7,344.9,786.8,344.5,786.6,344.1z"/>
<path class="st14" d="M781.6,347.6l-1.8-2.6c-0.2-0.3-0.6-0.4-1-0.2l-2.7,1.8c-0.3,0.2-0.4,0.6-0.2,1l1.6,2.5c0.2,0.3,0.6,0.4,1,0.2
	l2.8-1.8C781.8,348.4,781.8,347.9,781.6,347.6C781.6,347.6,781.6,347.6,781.6,347.6z"/>
<path class="st14" d="M776.5,351.1l-1.8-2.6c-0.2-0.3-0.6-0.4-1-0.2l-2.6,1.8c-0.3,0.2-0.4,0.6-0.2,1l1.6,2.5c0.2,0.3,0.6,0.4,1,0.2
	l2.8-1.8C776.7,351.9,776.8,351.4,776.5,351.1C776.5,351.1,776.5,351.1,776.5,351.1z"/>
<path class="st14" d="M779.7,334.2l-1.8-2.6c-0.2-0.3-0.6-0.4-1-0.2l-2.7,1.8c-0.3,0.2-0.4,0.6-0.2,1l1.6,2.5c0.2,0.3,0.6,0.4,1,0.2
	l2.8-1.8C779.8,334.9,779.9,334.5,779.7,334.2z"/>
<path class="st14" d="M774.7,337.6l-1.8-2.6c-0.2-0.3-0.6-0.4-1-0.2l-2.7,1.8c-0.3,0.2-0.4,0.6-0.2,1l1.6,2.5c0.2,0.3,0.6,0.4,1,0.2
	l2.8-1.8C774.8,338.4,774.9,338,774.7,337.6C774.7,337.6,774.7,337.6,774.7,337.6z"/>
<path class="st14" d="M769.6,341.1l-1.8-2.6c-0.2-0.3-0.6-0.4-1-0.2l-2.6,1.8c-0.3,0.2-0.4,0.6-0.2,1l1.6,2.5c0.2,0.3,0.6,0.4,1,0.2
	l2.8-1.8C769.8,341.9,769.9,341.5,769.6,341.1C769.6,341.2,769.6,341.2,769.6,341.1z"/>
<path class="st14" d="M771.5,354.6l-1.8-2.6c-0.2-0.3-0.6-0.4-1-0.2l-2.7,1.8c-0.3,0.2-0.4,0.6-0.2,1l1.6,2.5c0.2,0.3,0.6,0.4,1,0.2
	l2.8-1.8C771.6,355.4,771.7,354.9,771.5,354.6z"/>
<path class="st14" d="M766.4,358.1l-1.8-2.6c-0.2-0.3-0.6-0.4-1-0.2l-2.7,1.8c-0.3,0.2-0.4,0.6-0.2,1l1.6,2.5c0.2,0.3,0.6,0.4,1,0.2
	l2.8-1.8C766.5,359,766.6,358.5,766.4,358.1C766.4,358.2,766.4,358.2,766.4,358.1z"/>
<path class="st14" d="M761.5,362l-2.2-3.2c-0.1-0.1-0.3-0.2-0.4-0.1c0,0,0,0,0,0l-3.2,2.2c-0.1,0.1-0.2,0.3-0.1,0.4c0,0,0,0,0,0
	l2,3.1c0.1,0.2,0.3,0.2,0.4,0.1c0,0,0,0,0,0l3.4-2.1C761.6,362.3,761.7,362.1,761.5,362C761.6,362,761.6,362,761.5,362z"/>
<path class="st14" d="M757.1,365.1l-2.2-3.2c-0.1-0.1-0.3-0.2-0.5-0.1l-3.3,2.2c-0.1,0.1-0.2,0.3-0.1,0.5l2.1,3.1
	c0.1,0.2,0.3,0.2,0.4,0.1l3.4-2.1C757.1,365.5,757.2,365.3,757.1,365.1C757.1,365.1,757.1,365.1,757.1,365.1z"/>
<path class="st14" d="M752,368.6l-2.2-3.2c-0.1-0.1-0.3-0.2-0.4-0.1l-3.3,2.2c-0.1,0.1-0.2,0.3-0.1,0.5l2,3.1
	c0.1,0.1,0.3,0.2,0.4,0.1l3.4-2.1C752.1,369,752.2,368.8,752,368.6C752.1,368.6,752.1,368.6,752,368.6z"/>
<path class="st14" d="M747.2,371.9l-2.2-3.2c-0.1-0.1-0.3-0.2-0.4-0.1c0,0,0,0,0,0l-3.3,2.2c-0.1,0.1-0.2,0.3-0.1,0.4l2,3.1
	c0.1,0.2,0.3,0.2,0.4,0.1l3.4-2.1C747.2,372.3,747.3,372.1,747.2,371.9C747.2,372,747.2,371.9,747.2,371.9z"/>
<path class="st14" d="M778.3,342.8l-1.8-2.6c-0.2-0.3-0.6-0.4-1-0.2l-2.7,1.8c-0.3,0.2-0.4,0.6-0.2,1l1.6,2.5c0.2,0.3,0.6,0.4,1,0.2
	l2.8-1.8C778.4,343.6,778.5,343.1,778.3,342.8C778.3,342.8,778.3,342.8,778.3,342.8z"/>
<path class="st14" d="M773.2,346.3l-1.8-2.6c-0.2-0.3-0.6-0.4-1-0.2l-2.7,1.8c-0.3,0.2-0.4,0.6-0.2,1l1.6,2.5c0.2,0.3,0.6,0.4,1,0.2
	l2.8-1.8C773.3,347.1,773.4,346.6,773.2,346.3C773.2,346.3,773.2,346.3,773.2,346.3z"/>
<path class="st14" d="M768.1,349.8l-1.8-2.5c-0.2-0.3-0.6-0.4-1-0.2l-2.6,1.8c-0.3,0.2-0.4,0.6-0.2,1l1.6,2.5c0.2,0.3,0.6,0.4,1,0.2
	l2.8-1.8C768.3,350.6,768.4,350.1,768.1,349.8C768.1,349.8,768.1,349.8,768.1,349.8z"/>
<path class="st14" d="M763.1,353.3l-1.8-2.6c-0.2-0.3-0.6-0.4-1-0.2l-2.7,1.8c-0.3,0.2-0.4,0.6-0.2,1l1.6,2.5c0.2,0.3,0.6,0.4,1,0.2
	l2.8-1.8C763.2,354.1,763.3,353.7,763.1,353.3C763.1,353.3,763.1,353.3,763.1,353.3z"/>
<path class="st14" d="M758.2,357.1L756,354c-0.1-0.1-0.3-0.2-0.5-0.1c0,0,0,0,0,0l-3.3,2.2c-0.1,0.1-0.2,0.3-0.1,0.4l2,3.1
	c0.1,0.2,0.3,0.2,0.5,0.1c0,0,0,0,0,0l3.4-2.1C758.3,357.5,758.3,357.4,758.2,357.1C758.2,357.2,758.2,357.2,758.2,357.1z"/>
<path class="st14" d="M753.7,360.3l-2.2-3.2c-0.1-0.1-0.3-0.2-0.4-0.1c0,0,0,0,0,0l-3.2,2.2c-0.1,0.1-0.2,0.3-0.1,0.5l2,3.1
	c0.1,0.1,0.3,0.2,0.4,0.1l3.4-2.1C753.8,360.6,753.9,360.4,753.7,360.3C753.7,360.3,753.7,360.3,753.7,360.3z"/>
<path class="st14" d="M748.7,363.7l-2.2-3.2c-0.1-0.1-0.3-0.2-0.5-0.1l-3.3,2.2c-0.1,0.1-0.2,0.3-0.1,0.5l2,3.1
	c0.1,0.2,0.3,0.2,0.4,0.1l3.4-2.1C748.8,364.1,748.8,363.9,748.7,363.7C748.7,363.8,748.7,363.8,748.7,363.7z"/>
<path class="st14" d="M743.8,367.1l-2.2-3.2c-0.1-0.1-0.3-0.2-0.5-0.1c0,0,0,0,0,0l-3.3,2.2c-0.1,0.1-0.2,0.3-0.1,0.4c0,0,0,0,0,0
	l2,3.1c0.1,0.1,0.3,0.2,0.4,0.1c0,0,0,0,0,0l3.4-2.1C743.9,367.5,743.9,367.3,743.8,367.1C743.8,367.1,743.8,367.1,743.8,367.1z"/>
<path class="st14" d="M742.3,375.3l-2.2-3.2c-0.1-0.1-0.3-0.2-0.5-0.1l-3.3,2.2c-0.1,0.1-0.2,0.3-0.1,0.5l2,3.1
	c0.1,0.1,0.3,0.2,0.4,0.1l3.4-2.1C742.4,375.7,742.4,375.5,742.3,375.3C742.3,375.3,742.3,375.3,742.3,375.3z"/>
<path class="st14" d="M737.4,378.7l-2.2-3.2c-0.1-0.1-0.3-0.2-0.5-0.1c0,0,0,0,0,0l-3.3,2.2c-0.1,0.1-0.2,0.3-0.1,0.4l2,3.1
	c0.1,0.2,0.3,0.2,0.5,0.1c0,0,0,0,0,0l3.4-2.1C737.5,379.1,737.6,378.9,737.4,378.7C737.5,378.7,737.4,378.7,737.4,378.7z"/>
<path class="st14" d="M745.1,358.5l-2.1-3c-0.1-0.2-0.4-0.2-0.6-0.1l-3.1,2.1c-0.2,0.1-0.3,0.4-0.1,0.6l1.9,3
	c0.1,0.2,0.4,0.3,0.6,0.1l3.2-2C745.1,359,745.2,358.7,745.1,358.5C745.1,358.5,745.1,358.5,745.1,358.5z"/>
<path class="st14" d="M740.2,361.9l-2.1-3c-0.1-0.2-0.4-0.2-0.6-0.1c0,0,0,0,0,0l-3.1,2.1c-0.2,0.1-0.3,0.4-0.1,0.6l1.9,3
	c0.1,0.2,0.4,0.3,0.6,0.1l3.3-2C740.3,362.4,740.3,362.1,740.2,361.9C740.2,361.9,740.2,361.9,740.2,361.9z"/>
<path class="st14" d="M735.3,365.2l-2.1-3c-0.1-0.2-0.4-0.2-0.6-0.1l-3.1,2.1c-0.2,0.1-0.3,0.4-0.1,0.6l1.9,3
	c0.1,0.2,0.4,0.3,0.6,0.1l3.3-2C735.4,365.7,735.5,365.5,735.3,365.2C735.3,365.3,735.3,365.2,735.3,365.2z"/>
<path class="st14" d="M730.5,368.7l-2.2-3.2c-0.1-0.1-0.3-0.2-0.5-0.1l-3.3,2.2c-0.1,0.1-0.2,0.3-0.1,0.5l2,3.1
	c0.1,0.2,0.3,0.2,0.4,0.1l3.4-2.1C730.6,369.1,730.7,368.9,730.5,368.7C730.6,368.7,730.5,368.7,730.5,368.7z"/>
<path class="st14" d="M788.2,335.9l-1.9-2.7c-0.2-0.3-0.7-0.4-1-0.2l-7.6,5.3c-0.3,0.2-0.4,0.6-0.2,1l1.8,2.8c0.2,0.3,0.7,0.4,1,0.2
	c0,0,0,0,0,0l7.6-5.3C788.3,336.6,788.4,336.2,788.2,335.9z"/>
<path class="st14" d="M738.9,370.4l-2.4-3.3c-0.1-0.1-0.3-0.2-0.4-0.1c0,0,0,0,0,0l-8.1,5.7c-0.1,0.1-0.2,0.3-0.1,0.4l2.2,3.4
	c0.1,0.2,0.3,0.2,0.5,0.1c0,0,0,0,0,0l8.3-5.8C739,370.7,739.1,370.5,738.9,370.4z"/>
<path class="st14" d="M764.8,344.8l-2.1-3.2c-0.1-0.1-0.3-0.2-0.5-0.1l-18,12.2c-0.1,0.1-0.2,0.3-0.1,0.4c0,0,0,0,0,0l2.2,3.4
	c0.1,0.2,0.3,0.2,0.5,0.1c0,0,0,0,0,0l18-12.4C764.9,345.2,764.9,345,764.8,344.8z"/>
<path class="st7" d="M764.9,334l-9.6-13.9c-0.6-0.8-1.7-1-2.5-0.5l-26.4,17.7c-0.8,0.6-1,1.7-0.5,2.5c0,0,0,0,0,0l9.8,14.3
	c0.5,0.8,1.7,1,2.5,0.5c0,0,0,0,0,0l26.2-18.2C765.2,335.9,765.5,334.8,764.9,334C764.9,334,764.9,334,764.9,334z"/>
<path class="st16" d="M765.3,334l-9.6-13.9c-0.6-0.8-1.7-1-2.5-0.5l-26.4,17.8c-0.8,0.5-1,1.6-0.5,2.5c0,0,0,0,0,0l9.8,14.3
	c0.5,0.8,1.7,1,2.5,0.5c0,0,0,0,0,0l26.3-18.2C765.7,336,765.9,334.9,765.3,334C765.3,334,765.3,334,765.3,334z"/>
<path class="st11" d="M824.8,356.6l-20.4-6.8l-65.3,45.4l20.2,6.6c1.1,0.4,2.3,0.2,3.3-0.5l62.4-43.4c0.3-0.2,0.5-0.6,0.3-1
	C825.2,356.7,825,356.6,824.8,356.6z"/>
</svg>
